<svg xmlns="http://www.w3.org/2000/svg" xmlns:xlink="http://www.w3.org/1999/xlink" width="90" zoomAndPan="magnify" viewBox="0 0 67.5 67.499996" height="90" preserveAspectRatio="xMidYMid meet" version="1.0"><defs><clipPath id="a0246299d0"><path d="M 12.695312 16.722656 L 54.695312 16.722656 L 54.695312 50.472656 L 12.695312 50.472656 Z M 12.695312 16.722656 " clip-rule="nonzero"/></clipPath><clipPath id="26bd50d547"><path d="M 0 0 L 67.003906 0 L 67.003906 67.003906 L 0 67.003906 Z M 0 0 " clip-rule="nonzero"/></clipPath><clipPath id="2c84daed7e"><path d="M 33.75 0 C 15.109375 0 0 15.109375 0 33.75 C 0 52.390625 15.109375 67.5 33.75 67.5 C 52.390625 67.5 67.5 52.390625 67.5 33.75 C 67.5 15.109375 52.390625 0 33.75 0 " clip-rule="nonzero"/></clipPath><clipPath id="64edb4bce5"><path d="M 0 0 L 67.003906 0 L 67.003906 67.003906 L 0 67.003906 Z M 0 0 " clip-rule="nonzero"/></clipPath></defs><g clip-path="url(#a0246299d0)"><path fill="#000000" d="M 22.644531 43.835938 L 22.644531 47.152344 C 22.644531 48.96875 21.171875 50.449219 19.34375 50.449219 C 17.519531 50.449219 16.046875 48.96875 16.046875 47.152344 L 16.046875 43.835938 L 12.699219 43.835938 L 12.699219 33.074219 C 12.699219 30.722656 14.285156 28.753906 16.441406 28.160156 L 20.320312 19.011719 C 20.867188 17.667969 22.203125 16.714844 23.757812 16.714844 L 43.582031 16.714844 C 45.140625 16.714844 46.472656 17.667969 47.035156 19.011719 L 50.90625 28.160156 C 53.082031 28.753906 54.667969 30.722656 54.667969 33.074219 L 54.667969 43.832031 L 51.296875 43.832031 L 51.296875 47.152344 C 51.296875 48.96875 49.828125 50.449219 47.992188 50.449219 C 46.164062 50.449219 44.691406 48.96875 44.691406 47.152344 L 44.691406 43.832031 L 22.644531 43.832031 Z M 19.265625 37.066406 C 20.796875 37.066406 22.027344 35.84375 22.027344 34.316406 C 22.027344 32.800781 20.796875 31.566406 19.265625 31.566406 C 17.746094 31.566406 16.492188 32.800781 16.492188 34.316406 C 16.492188 35.84375 17.746094 37.066406 19.265625 37.066406 Z M 50.632812 34.316406 C 50.632812 32.800781 49.402344 31.566406 47.855469 31.566406 C 46.335938 31.566406 45.085938 32.800781 45.085938 34.316406 C 45.085938 35.84375 46.335938 37.066406 47.855469 37.066406 C 49.402344 37.066406 50.632812 35.84375 50.632812 34.316406 Z M 47.566406 27.972656 L 44.265625 20.085938 C 44.113281 19.675781 43.734375 19.386719 43.273438 19.386719 L 24.0625 19.386719 C 23.621094 19.386719 23.226562 19.675781 23.089844 20.085938 L 19.769531 27.972656 Z M 47.566406 27.972656 " fill-opacity="1" fill-rule="nonzero"/></g><g clip-path="url(#26bd50d547)"><g clip-path="url(#2c84daed7e)"><path stroke-linecap="butt" transform="matrix(0.75, 0, 0, 0.75, 0.000002, -0.00000198529)" fill="none" stroke-linejoin="miter" d="M 45.000003 0.00000264706 C 20.145833 0.00000264706 -0.00000266667 20.145838 -0.00000266667 45.000008 C -0.00000266667 69.854177 20.145833 90.000013 45.000003 90.000013 C 69.854172 90.000013 90.000008 69.854177 90.000008 45.000008 C 90.000008 20.145838 69.854172 0.00000264706 45.000003 0.00000264706 " stroke="#ff3131" stroke-width="12" stroke-opacity="1" stroke-miterlimit="4"/></g></g><g clip-path="url(#64edb4bce5)"><path stroke-linecap="butt" transform="matrix(0.524512, -0.534243, 0.535182, 0.525433, 11.357188, 54.232871)" fill="none" stroke-linejoin="miter" d="M -0.000241388 2.500555 L 80.142606 2.499265 " stroke="#ff3131" stroke-width="5" stroke-opacity="1" stroke-miterlimit="4"/></g></svg>